<svg width="529" height="309" viewBox="0 0 529 309" fill="none" preserveAspectRatio="none" xmlns="http://www.w3.org/2000/svg">
<path d="M12.5 23.5522C7.83333 62.31 -0.59994 151.977 5.00006 183.821C12.0001 223.626 3.5 268.145 38 278.62C72.5 289.095 138.5 269.193 151.5 269.193C164.5 269.193 261.5 257.67 282.5 257.67C303.5 257.67 383 257.67 394 257.67C402.8 257.67 379.667 265.352 367 269.193" stroke="#D9B4F6" stroke-width="6" stroke-linecap="round" stroke-linejoin="round"/>
<path d="M273.5 3.64941C229.5 -0.540623 82.1667 16.5687 14 25.6471C14 67.1982 15.6 160.566 22 201.628C30 252.956 61 272.335 100.5 284.905C140 297.475 216 284.905 238 284.905C260 284.905 403 266.05 427 261.86C451 257.67 414 281.763 408 298.523C402 315.283 421 302.713 457.5 272.335C494 241.957 514.5 206.866 523.5 150.301C532.5 93.7352 500.5 59.6912 480.5 46.0736C460.5 32.456 328.5 8.88694 273.5 3.64941Z" stroke="#D9B4F6" stroke-width="6" stroke-linecap="round" stroke-linejoin="round"/>
</svg>
