<svg width="2425" height="198" viewBox="0 0 2425 198" fill="none" preserveAspectRatio="none" xmlns="http://www.w3.org/2000/svg">
<path d="M53.1404 11C541.96 8.29997 1024.6 8.98997 2375.08 11M53.1404 11C698.2 -1.87003 1338.82 0.229975 2375.08 11M53.1404 11C12.7304 17.81 6.67044 36.74 7.00044 57.14M53.1404 11C31.3904 18.53 6.31044 16.61 7.00044 57.14M2375.08 11C2400.34 20.51 2430.94 30.38 2421.22 57.14M2375.08 11C2412.58 14.81 2407.66 23.12 2421.22 57.14M2421.22 57.14C2419.24 88.04 2413 124.64 2421.22 149.42M2421.22 57.14C2423.5 94.04 2419.33 117.77 2421.22 149.42M2421.22 149.42C2418.97 188.66 2415.49 198.41 2375.08 195.56M2421.22 149.42C2412.97 170.45 2411.26 201.83 2375.08 195.56M2375.08 195.56C1842.4 176.18 1311.61 181.46 53.1404 195.56M2375.08 195.56C1610.08 192.35 842.02 191.66 53.1404 195.56M53.1404 195.56C13.4204 192.92 16.9604 191.27 7.00044 149.42M53.1404 195.56C30.2804 194.81 6.01044 173.9 7.00044 149.42M7.00044 149.42C5.32044 120.68 -3.13956 89.09 7.00044 57.14M7.00044 149.42C11.8304 117.11 6.25044 85.43 7.00044 57.14" stroke="#1E1E1E" stroke-width="3" stroke-linecap="round"/>
</svg>
