<svg width="599" height="281" viewBox="0 0 599 281" fill="none" xmlns="http://www.w3.org/2000/svg" preserveAspectRatio="none">
<path d="M19.3387 8.38316C172.621 7.13223 326.55 10.6197 579.267 8.38316M19.3387 8.38316C189.594 -1.70007 358.879 0.0436487 579.267 8.38316M19.3387 8.38316C9.7205 10.5438 4.74044 41.8549 3.04039 75.2509M19.3387 8.38316C6.73616 7.85246 -0.378203 23.0531 3.04039 75.2509M579.267 8.38316C591.472 14.4862 595.362 22.2192 595.565 75.2509M579.267 8.38316C593.616 9.89943 591.731 44.4705 595.565 75.2509M595.565 75.2509C597.792 113.347 599.196 161.716 595.565 209.024M595.565 75.2509C596.498 97.995 594.734 134.916 595.565 209.024M595.565 209.024C598.189 268.197 587.167 288.249 579.267 275.93M595.565 209.024C594.281 236.658 587.61 269.486 579.267 275.93M579.267 275.93C426.105 272.708 275.031 272.291 19.3387 275.93M579.267 275.93C437.395 272.139 294.997 271.191 19.3387 275.93M19.3387 275.93C8.42698 262.776 -0.405922 245.68 3.04039 209.024M19.3387 275.93C9.17537 273.845 5.66439 251.518 3.04039 209.024M3.04039 209.024C0.0837683 176.538 3.65943 155.651 3.04039 75.2509M3.04039 209.024C4.11216 151.482 2.43982 97.9192 3.04039 75.2509" stroke="#1E1E1E" stroke-width="1.3" stroke-linecap="round"/>
</svg>
